<svg width="481" height="171" viewBox="0 0 481 171" fill="none" xmlns="http://www.w3.org/2000/svg">
<path d="M87.9743 8.936C89.5583 6.704 92.7623 4.544 96.7583 4.544C102.158 4.58 105.002 7.388 105.65 11.096H93.3743V15.02H105.722C105.218 19.448 102.086 22.22 96.9023 22.256C92.4383 22.256 89.2703 20.24 87.7943 17.684V23.228C89.0543 24.74 92.4383 26.396 96.7943 26.396C105.326 26.396 110.474 21.032 110.474 13.436C110.474 5.264 104.894 0.403999 96.7583 0.403999C92.6183 0.439999 89.5223 1.628 87.9743 2.672V8.936ZM117.947 26H122.123V11.708H127.955V8H112.187V11.708H117.947V26ZM137.297 26.072C136.613 28.52 135.641 29.384 134.345 29.384C133.553 29.384 132.725 29.024 132.185 28.484V32.408C132.725 32.876 133.949 33.2 135.065 33.2C137.441 33.2 139.061 32.228 140.645 27.908L147.845 8H143.381L139.349 20.348L134.417 8H129.701L137.297 26.072ZM170.572 26H174.784V8H158.512V26H162.724V11.708H170.572V26ZM187.195 26.396C192.775 26.36 196.555 23.3 196.555 17.072C196.555 10.808 192.919 7.64 187.339 7.604C181.723 7.604 177.943 10.7 177.943 16.928C177.943 23.228 181.579 26.396 187.195 26.396ZM182.227 16.928C182.227 13.148 183.991 11.312 187.195 11.276C190.363 11.276 192.271 13.004 192.271 16.964V17.072C192.271 20.888 190.471 22.724 187.267 22.724C184.099 22.724 182.227 20.996 182.227 17.036V16.928ZM197.349 22.184V30.68H201.165V26H213.801V30.68H217.617V22.184H214.881V8H201.057V10.052C201.057 16.028 200.445 19.592 199.437 22.184H197.349ZM204.981 12.14V11.708H210.669V22.184H203.505C204.513 19.376 204.873 16.28 204.981 12.14ZM232.773 26H236.949V8H223.197L223.053 11.924C222.801 21.32 221.541 21.824 219.993 21.824C219.705 21.824 219.381 21.788 219.057 21.68V26.036C219.417 26.144 220.137 26.216 220.821 26.216C223.629 26.216 226.365 25.208 226.833 13.976L226.941 11.708H232.773V26ZM246.778 26.072C246.094 28.52 245.122 29.384 243.826 29.384C243.034 29.384 242.206 29.024 241.666 28.484V32.408C242.206 32.876 243.43 33.2 244.546 33.2C246.922 33.2 248.542 32.228 250.126 27.908L257.326 8H252.862L248.83 20.348L243.898 8H239.182L246.778 26.072ZM259.361 26H263.573V18.728H266.273C266.885 23.876 270.197 26.468 275.093 26.468C280.709 26.432 284.489 23.372 284.489 17.144C284.489 10.844 280.817 7.676 275.237 7.676C270.449 7.676 267.029 10.124 266.309 15.02H263.573V8H259.361V26ZM275.201 22.796C272.177 22.796 270.341 21.068 270.341 17.108V17C270.341 13.184 272.069 11.348 275.165 11.348C278.297 11.384 280.169 13.112 280.169 17.036V17.144C280.169 20.96 278.405 22.796 275.201 22.796ZM295.376 24.164C296.276 25.172 299.012 26.36 302.18 26.36C307.04 26.36 310.316 24.38 310.316 20.6C310.316 18.188 308.984 16.964 306.572 16.496C308.372 15.74 309.56 14.588 309.56 12.32C309.56 9.476 307.436 7.64 302.432 7.64H302.288C299.516 7.64 297.068 8.36 295.7 9.26V14.516C297.104 12.608 299.264 11.312 302.288 11.312C304.484 11.348 305.276 12.068 305.276 13.292C305.276 14.804 303.98 15.416 302.036 15.416H299.48V18.476H302.576C305.024 18.476 306.068 19.052 306.068 20.456C306.068 21.968 304.556 22.688 302.18 22.688C298.796 22.688 296.42 21.428 295.376 19.844V24.164ZM313.918 14.516C315.142 12.608 317.05 11.312 320.362 11.312C322.774 11.312 323.998 12.104 323.998 14.66V15.452H319.93C315.502 15.452 312.514 16.604 312.514 20.708C312.514 24.236 314.674 26.288 318.31 26.288C321.19 26.288 323.386 24.848 324.25 22.76V26H328.21V14.12C328.21 9.44 325.618 7.64 320.362 7.64C317.266 7.64 315.106 8.36 313.918 9.26V14.516ZM319.642 22.508C317.77 22.508 316.762 21.644 316.762 20.276C316.762 18.656 317.95 18.188 320.434 18.188H323.998V19.664C323.818 20.888 322.486 22.508 319.642 22.508ZM336.452 26H340.628V11.708H346.46V8H330.692V11.708H336.452V26ZM364.074 24.2V19.88C363.102 21.464 360.906 22.724 357.594 22.724C354.318 22.724 352.482 21.212 352.158 18.224H365.514V16.496C365.514 10.844 362.382 7.64 357.162 7.604C351.726 7.604 347.982 10.952 347.982 16.928C347.982 23.12 351.51 26.396 357.45 26.36C360.726 26.396 363.21 25.208 364.074 24.2ZM357.054 11.276C359.61 11.276 361.194 12.788 361.302 15.236H352.23C352.662 12.644 354.354 11.276 357.054 11.276ZM368.666 26H372.878V18.728H375.578C376.19 23.876 379.502 26.468 384.398 26.468C390.014 26.432 393.794 23.372 393.794 17.144C393.794 10.844 390.122 7.676 384.542 7.676C379.754 7.676 376.334 10.124 375.614 15.02H372.878V8H368.666V26ZM384.506 22.796C381.482 22.796 379.646 21.068 379.646 17.108V17C379.646 13.184 381.374 11.348 384.47 11.348C387.602 11.384 389.474 13.112 389.474 17.036V17.144C389.474 20.96 387.71 22.796 384.506 22.796ZM29.9897 46.8H25.4897V57.42H21.7457L16.2017 46.8H11.0897L17.8217 59.184L10.0817 72H15.4457L21.7817 61.02H25.4897V72H29.9897V61.02H33.7697L40.0697 72H45.4337L37.6577 58.824L44.3177 46.8H39.4577L33.7337 57.42H29.9897V46.8ZM46.6625 68.184V76.68H50.4785V72H63.1145V76.68H66.9305V68.184H64.1945V54H50.3705V56.052C50.3705 62.028 49.7585 65.592 48.7505 68.184H46.6625ZM54.2945 58.14V57.708H59.9825V68.184H52.8185C53.8265 65.376 54.1865 62.28 54.2945 58.14ZM84.3421 70.2V65.88C83.3701 67.464 81.1741 68.724 77.8621 68.724C74.5861 68.724 72.7501 67.212 72.4261 64.224H85.7821V62.496C85.7821 56.844 82.6501 53.64 77.4301 53.604C71.9941 53.604 68.2501 56.952 68.2501 62.928C68.2501 69.12 71.7781 72.396 77.7181 72.36C80.9941 72.396 83.4781 71.208 84.3421 70.2ZM77.3221 57.276C79.8781 57.276 81.4621 58.788 81.5701 61.236H72.4981C72.9301 58.644 74.6221 57.276 77.3221 57.276ZM93.0378 72H97.2138V57.708H103.046V54H87.2778V57.708H93.0378V72ZM130.3 44.1C128.824 44.856 125.08 45 122.308 45.468C116.116 46.476 113.38 50.472 113.38 60.408C113.38 68.724 116.8 72.36 122.92 72.36C128.608 72.36 131.992 69.12 131.992 62.748C131.992 56.232 128.32 54 123.892 54C120.652 54 118.456 55.332 117.052 57.348C117.52 52.2 118.816 49.932 124.576 49.392C127.528 49.14 129.58 48.816 130.3 48.42V44.1ZM117.7 62.784C117.7 59.436 119.644 57.744 122.812 57.744C125.836 57.744 127.6 59.364 127.6 63.108C127.6 67.032 125.476 68.544 122.632 68.544C119.356 68.544 117.7 66.132 117.7 62.784ZM149.982 70.2V65.88C149.01 67.464 146.814 68.724 143.502 68.724C140.226 68.724 138.39 67.212 138.066 64.224H151.422V62.496C151.422 56.844 148.29 53.64 143.07 53.604C137.634 53.604 133.89 56.952 133.89 62.928C133.89 69.12 137.418 72.396 143.358 72.36C146.634 72.396 149.118 71.208 149.982 70.2ZM142.962 57.276C145.518 57.276 147.102 58.788 147.21 61.236H138.138C138.57 58.644 140.262 57.276 142.962 57.276ZM153.427 70.164C154.327 71.172 157.063 72.36 160.231 72.36C165.091 72.36 168.367 70.38 168.367 66.6C168.367 64.188 167.035 62.964 164.623 62.496C166.423 61.74 167.611 60.588 167.611 58.32C167.611 55.476 165.487 53.64 160.483 53.64H160.339C157.567 53.64 155.119 54.36 153.751 55.26V60.516C155.155 58.608 157.315 57.312 160.339 57.312C162.535 57.348 163.327 58.068 163.327 59.292C163.327 60.804 162.031 61.416 160.087 61.416H157.531V64.476H160.627C163.075 64.476 164.119 65.052 164.119 66.456C164.119 67.968 162.607 68.688 160.231 68.688C156.847 68.688 154.471 67.428 153.427 65.844V70.164ZM171.537 78.948H175.749V69.264C176.649 70.956 178.629 72.396 181.509 72.396C186.441 72.396 189.645 69.696 189.645 62.604C189.645 56.304 186.441 53.64 181.869 53.64C178.053 53.64 176.145 55.728 175.497 57.744V54H171.537V78.948ZM175.749 62.244C175.821 59.22 177.333 57.384 180.645 57.384C183.525 57.384 185.433 58.824 185.433 62.784C185.433 67.032 183.957 68.688 180.573 68.688C177.621 68.688 175.749 66.852 175.749 63.612V62.244ZM193.186 60.516C194.41 58.608 196.318 57.312 199.63 57.312C202.042 57.312 203.266 58.104 203.266 60.66V61.452H199.198C194.77 61.452 191.782 62.604 191.782 66.708C191.782 70.236 193.942 72.288 197.578 72.288C200.458 72.288 202.654 70.848 203.518 68.76V72H207.478V60.12C207.478 55.44 204.886 53.64 199.63 53.64C196.534 53.64 194.374 54.36 193.186 55.26V60.516ZM198.91 68.508C197.038 68.508 196.03 67.644 196.03 66.276C196.03 64.656 197.218 64.188 199.702 64.188H203.266V65.664C203.086 66.888 201.754 68.508 198.91 68.508ZM209.6 68.184V76.68H213.416V72H226.052V76.68H229.868V68.184H227.132V54H213.308V56.052C213.308 62.028 212.696 65.592 211.688 68.184H209.6ZM217.232 58.14V57.708H222.92V68.184H215.756C216.764 65.376 217.124 62.28 217.232 58.14ZM240.44 72.396C246.02 72.36 249.8 69.3 249.8 63.072C249.8 56.808 246.164 53.64 240.584 53.604C234.968 53.604 231.188 56.7 231.188 62.928C231.188 69.228 234.824 72.396 240.44 72.396ZM235.472 62.928C235.472 59.148 237.236 57.312 240.44 57.276C243.608 57.276 245.516 59.004 245.516 62.964V63.072C245.516 66.888 243.716 68.724 240.512 68.724C237.344 68.724 235.472 66.996 235.472 63.036V62.928ZM267.29 70.2V65.88C266.39 67.464 264.41 68.724 261.422 68.724C258.038 68.724 256.022 66.996 256.022 63.288V62.748C256.022 59.112 257.894 57.276 261.35 57.276C263.978 57.312 265.886 58.608 267.11 60.516V55.26C265.922 54.36 263.762 53.64 261.35 53.604C255.626 53.64 251.738 56.736 251.738 62.928C251.738 69.228 255.554 72.396 261.314 72.396C264.23 72.396 266.498 71.208 267.29 70.2ZM274.908 72H279.084V57.708H284.916V54H269.148V57.708H274.908V72ZM300.01 72H304.222V54H300.01V61.02H291.874V54H287.662V72H291.874V64.728H300.01V72ZM308.599 72H315.439C321.019 72 323.467 70.02 323.503 65.448C323.503 60.732 320.803 59.328 315.907 59.328H312.811V54H308.599V72ZM325.555 72H329.767V54H325.555V72ZM315.295 68.292H312.811V63.036H315.583C318.355 63.036 319.255 63.54 319.291 65.448C319.255 67.572 318.139 68.292 315.295 68.292ZM334.211 72H338.207L346.847 59.652V72H351.023V54H347.027L338.387 66.204V54H334.211V72ZM345.011 45.036C345.011 46.836 344.147 47.484 342.707 47.484C340.943 47.484 340.187 46.548 340.187 45.036H336.299C336.299 49.104 339.215 50.616 342.779 50.616C345.875 50.616 348.899 49.104 348.899 45.036H345.011ZM364.096 72H368.092L376.732 59.652V72H380.908V54H376.912L368.272 66.204V54H364.096V72ZM399.64 70.2V65.88C398.74 67.464 396.76 68.724 393.772 68.724C390.388 68.724 388.372 66.996 388.372 63.288V62.748C388.372 59.112 390.244 57.276 393.7 57.276C396.328 57.312 398.236 58.608 399.46 60.516V55.26C398.272 54.36 396.112 53.64 393.7 53.604C387.976 53.64 384.088 56.736 384.088 62.928C384.088 69.228 387.904 72.396 393.664 72.396C396.58 72.396 398.848 71.208 399.64 70.2ZM400.959 72H405.711L409.995 65.196L414.279 72H419.211L413.019 62.532L418.779 54H414.027L410.175 60.084L406.323 54H401.391L407.079 62.784L400.959 72ZM428.92 72.396C434.5 72.36 438.28 69.3 438.28 63.072C438.28 56.808 434.644 53.64 429.064 53.604C423.448 53.604 419.668 56.7 419.668 62.928C419.668 69.228 423.304 72.396 428.92 72.396ZM423.952 62.928C423.952 59.148 425.716 57.312 428.92 57.276C432.088 57.276 433.996 59.004 433.996 62.964V63.072C433.996 66.888 432.196 68.724 428.992 68.724C425.824 68.724 423.952 66.996 423.952 63.036V62.928ZM439.074 68.184V76.68H442.89V72H455.526V76.68H459.342V68.184H456.606V54H442.782V56.052C442.782 62.028 442.17 65.592 441.162 68.184H439.074ZM446.706 58.14V57.708H452.394V68.184H445.23C446.238 65.376 446.598 62.28 446.706 58.14ZM462.569 69.588C462.569 71.1 463.217 72.36 465.377 72.36C467.573 72.36 468.221 71.1 468.221 69.588C468.221 68.04 467.573 66.816 465.377 66.816C463.217 66.816 462.569 68.04 462.569 69.588ZM26.929 118C33.049 118 36.793 115.876 36.793 110.656C36.793 107.38 35.389 105.4 32.293 104.86C34.885 103.852 36.037 101.944 36.037 99.064C36.037 94.888 33.157 92.8 27.541 92.8H16.597V118H26.929ZM21.097 113.86V106.984H27.289C30.457 106.984 32.257 107.92 32.257 110.332C32.257 112.744 30.673 113.86 27.217 113.86H21.097ZM21.097 103.456V96.94H27.001C30.205 96.94 31.537 98.02 31.537 100.036C31.537 102.196 29.737 103.456 26.893 103.456H21.097ZM56.4175 118H60.6295V100H56.3815L50.6935 108.424L44.8255 100H40.4695V118H44.6815V105.868L49.9015 113.536H51.2335L56.4175 105.904V118ZM79.8949 116.2V111.88C78.9229 113.464 76.7269 114.724 73.4149 114.724C70.1389 114.724 68.3029 113.212 67.9789 110.224H81.3349V108.496C81.3349 102.844 78.2029 99.64 72.9829 99.604C67.5469 99.604 63.8029 102.952 63.8029 108.928C63.8029 115.12 67.3309 118.396 73.2709 118.36C76.5469 118.396 79.0309 117.208 79.8949 116.2ZM72.8749 103.276C75.4309 103.276 77.0149 104.788 77.1229 107.236H68.0509C68.4829 104.644 70.1749 103.276 72.8749 103.276ZM98.8145 116.2V111.88C97.9145 113.464 95.9345 114.724 92.9465 114.724C89.5625 114.724 87.5465 112.996 87.5465 109.288V108.748C87.5465 105.112 89.4185 103.276 92.8745 103.276C95.5025 103.312 97.4105 104.608 98.6345 106.516V101.26C97.4465 100.36 95.2865 99.64 92.8745 99.604C87.1505 99.64 83.2625 102.736 83.2625 108.928C83.2625 115.228 87.0785 118.396 92.8385 118.396C95.7545 118.396 98.0225 117.208 98.8145 116.2ZM106.433 118H110.609V103.708H116.441V100H100.673V103.708H106.433V118ZM134.055 116.2V111.88C133.083 113.464 130.887 114.724 127.575 114.724C124.299 114.724 122.463 113.212 122.139 110.224H135.495V108.496C135.495 102.844 132.363 99.64 127.143 99.604C121.707 99.604 117.963 102.952 117.963 108.928C117.963 115.12 121.491 118.396 127.431 118.36C130.707 118.396 133.191 117.208 134.055 116.2ZM127.035 103.276C129.591 103.276 131.175 104.788 131.283 107.236H122.211C122.643 104.644 124.335 103.276 127.035 103.276ZM163.226 118H167.438V100H163.19L157.502 108.424L151.634 100H147.278V118H151.49V105.868L156.71 113.536H158.042L163.226 105.904V118ZM171.836 118H178.676C184.256 118 186.704 116.02 186.74 111.448C186.74 106.732 184.04 105.328 179.144 105.328H176.048V100H171.836V118ZM188.792 118H193.004V100H188.792V118ZM178.532 114.292H176.048V109.036H178.82C181.592 109.036 182.492 109.54 182.528 111.448C182.492 113.572 181.376 114.292 178.532 114.292ZM220.372 116.2V111.88C219.472 113.464 217.492 114.724 214.504 114.724C211.12 114.724 209.104 112.996 209.104 109.288V108.748C209.104 105.112 210.976 103.276 214.432 103.276C217.06 103.312 218.968 104.608 220.192 106.516V101.26C219.004 100.36 216.844 99.64 214.432 99.604C208.708 99.64 204.82 102.736 204.82 108.928C204.82 115.228 208.636 118.396 214.396 118.396C217.312 118.396 219.58 117.208 220.372 116.2ZM235.56 118H239.772V100H223.5V118H227.712V103.708H235.56V118ZM249.555 118.072C248.871 120.52 247.899 121.384 246.603 121.384C245.811 121.384 244.983 121.024 244.443 120.484V124.408C244.983 124.876 246.207 125.2 247.323 125.2C249.699 125.2 251.319 124.228 252.903 119.908L260.103 100H255.639L251.607 112.348L246.675 100H241.959L249.555 118.072ZM262.138 118H266.35V103.708H275.062V100H262.138V118ZM290.782 118H294.994V100H290.782V107.02H282.646V100H278.434V118H282.646V110.728H290.782V118ZM314.238 116.2V111.88C313.266 113.464 311.07 114.724 307.758 114.724C304.482 114.724 302.646 113.212 302.322 110.224H315.678V108.496C315.678 102.844 312.546 99.64 307.326 99.604C301.89 99.604 298.146 102.952 298.146 108.928C298.146 115.12 301.674 118.396 307.614 118.36C310.89 118.396 313.374 117.208 314.238 116.2ZM307.218 103.276C309.774 103.276 311.358 104.788 311.466 107.236H302.394C302.826 104.644 304.518 103.276 307.218 103.276ZM334.778 118H338.99V100H334.742L329.054 108.424L323.186 100H318.83V118H323.042V105.868L328.262 113.536H329.594L334.778 105.904V118ZM351.119 116.164C352.019 117.172 354.755 118.36 357.923 118.36C362.783 118.36 366.059 116.38 366.059 112.6C366.059 110.188 364.727 108.964 362.315 108.496C364.115 107.74 365.303 106.588 365.303 104.32C365.303 101.476 363.179 99.64 358.175 99.64H358.031C355.259 99.64 352.811 100.36 351.443 101.26V106.516C352.847 104.608 355.007 103.312 358.031 103.312C360.227 103.348 361.019 104.068 361.019 105.292C361.019 106.804 359.723 107.416 357.779 107.416H355.223V110.476H358.319C360.767 110.476 361.811 111.052 361.811 112.456C361.811 113.968 360.299 114.688 357.923 114.688C354.539 114.688 352.163 113.428 351.119 111.844V116.164ZM380.892 118H385.068V100H371.316L371.172 103.924C370.92 113.32 369.66 113.824 368.112 113.824C367.824 113.824 367.5 113.788 367.176 113.68V118.036C367.536 118.144 368.256 118.216 368.94 118.216C371.748 118.216 374.484 117.208 374.952 105.976L375.06 103.708H380.892V118ZM397.525 118.396C403.105 118.36 406.885 115.3 406.885 109.072C406.885 102.808 403.249 99.64 397.669 99.604C392.053 99.604 388.273 102.7 388.273 108.928C388.273 115.228 391.909 118.396 397.525 118.396ZM392.557 108.928C392.557 105.148 394.321 103.312 397.525 103.276C400.693 103.276 402.601 105.004 402.601 108.964V109.072C402.601 112.888 400.801 114.724 397.597 114.724C394.429 114.724 392.557 112.996 392.557 109.036V108.928ZM407.679 114.184V122.68H411.495V118H424.131V122.68H427.947V114.184H425.211V100H411.387V102.052C411.387 108.028 410.775 111.592 409.767 114.184H407.679ZM415.311 104.14V103.708H420.999V114.184H413.835C414.843 111.376 415.203 108.28 415.311 104.14ZM445.358 116.2V111.88C444.386 113.464 442.19 114.724 438.878 114.724C435.602 114.724 433.766 113.212 433.442 110.224H446.798V108.496C446.798 102.844 443.666 99.64 438.446 99.604C433.01 99.604 429.266 102.952 429.266 108.928C429.266 115.12 432.794 118.396 438.734 118.36C442.01 118.396 444.494 117.208 445.358 116.2ZM438.338 103.276C440.894 103.276 442.478 104.788 442.586 107.236H433.514C433.946 104.644 435.638 103.276 438.338 103.276ZM460.894 118H465.106V100H457.438C451.858 100 449.338 102.016 449.338 106.516C449.338 108.856 450.49 110.62 452.614 111.484L448.438 118H453.082L456.718 112.06H460.894V118ZM457.546 103.708H460.894V108.82H456.754C454.558 108.82 453.586 107.992 453.55 106.516C453.55 104.428 454.738 103.708 457.546 103.708ZM5.15295 138.8H0.652953V164H5.47695L19.301 144.884V164H23.801V138.8H18.905L5.15295 157.628V138.8ZM37.5515 164H46.5155C51.2315 164 53.4995 162.128 53.4995 158.672C53.4995 155.612 51.8075 154.568 49.5035 154.28C51.4475 153.812 52.5995 152.336 52.5995 150.176C52.5995 147.476 50.9075 146 46.6235 146H37.5515V164ZM41.7635 160.508V156.296H46.3715C48.3155 156.296 49.3235 156.8 49.3235 158.384C49.3235 159.824 48.3515 160.508 46.1195 160.508H41.7635ZM41.7635 153.272V149.528L45.6515 149.492C47.4515 149.492 48.3875 149.888 48.3875 151.22C48.3875 152.732 47.2715 153.272 45.6155 153.272H41.7635ZM71.4925 162.2V157.88C70.5205 159.464 68.3245 160.724 65.0125 160.724C61.7365 160.724 59.9005 159.212 59.5765 156.224H72.9325V154.496C72.9325 148.844 69.8005 145.64 64.5805 145.604C59.1445 145.604 55.4005 148.952 55.4005 154.928C55.4005 161.12 58.9285 164.396 64.8685 164.36C68.1445 164.396 70.6285 163.208 71.4925 162.2ZM64.4725 149.276C67.0285 149.276 68.6125 150.788 68.7205 153.236H59.6485C60.0805 150.644 61.7725 149.276 64.4725 149.276ZM76.0842 170.948H80.2962V161.264C81.1962 162.956 83.1762 164.396 86.0562 164.396C90.9882 164.396 94.1922 161.696 94.1922 154.604C94.1922 148.304 90.9882 145.64 86.4162 145.64C82.6002 145.64 80.6922 147.728 80.0442 149.744V146H76.0842V170.948ZM80.2962 154.244C80.3682 151.22 81.8802 149.384 85.1922 149.384C88.0722 149.384 89.9802 150.824 89.9802 154.784C89.9802 159.032 88.5042 160.688 85.1202 160.688C82.1682 160.688 80.2962 158.852 80.2962 155.612V154.244ZM109.65 164H113.862V146H109.65V153.02H101.514V146H97.3017V164H101.514V156.728H109.65V164ZM133.106 162.2V157.88C132.134 159.464 129.938 160.724 126.626 160.724C123.35 160.724 121.514 159.212 121.19 156.224H134.546V154.496C134.546 148.844 131.414 145.64 126.194 145.604C120.758 145.604 117.014 148.952 117.014 154.928C117.014 161.12 120.542 164.396 126.482 164.36C129.758 164.396 132.242 163.208 133.106 162.2ZM126.086 149.276C128.642 149.276 130.226 150.788 130.334 153.236H121.262C121.694 150.644 123.386 149.276 126.086 149.276ZM153.646 164H157.858V146H153.61L147.922 154.424L142.054 146H137.698V164H141.91V151.868L147.13 159.536H148.462L153.646 151.904V164ZM170.887 164H179.851C184.567 164 186.835 162.128 186.835 158.672C186.835 155.612 185.143 154.568 182.839 154.28C184.783 153.812 185.935 152.336 185.935 150.176C185.935 147.476 184.243 146 179.959 146H170.887V164ZM175.099 160.508V156.296H179.707C181.651 156.296 182.659 156.8 182.659 158.384C182.659 159.824 181.687 160.508 179.455 160.508H175.099ZM175.099 153.272V149.528L178.987 149.492C180.787 149.492 181.723 149.888 181.723 151.22C181.723 152.732 180.607 153.272 178.951 153.272H175.099ZM220.119 155.684C218.643 158.24 215.547 160.256 211.155 160.256C205.359 160.148 202.371 156.296 202.371 151.4C202.371 146.108 205.755 142.544 211.263 142.544C215.043 142.544 218.103 144.704 219.615 146.936V140.672C218.139 139.628 215.223 138.404 211.263 138.404C202.911 138.404 197.511 143.768 197.511 151.364C197.511 159.5 202.983 164.36 211.191 164.396C215.547 164.396 218.859 162.74 220.119 161.228V155.684ZM238.392 136.1C236.916 136.856 233.172 137 230.4 137.468C224.208 138.476 221.472 142.472 221.472 152.408C221.472 160.724 224.892 164.36 231.012 164.36C236.7 164.36 240.084 161.12 240.084 154.748C240.084 148.232 236.412 146 231.984 146C228.744 146 226.548 147.332 225.144 149.348C225.612 144.2 226.908 141.932 232.668 141.392C235.62 141.14 237.672 140.816 238.392 140.42V136.1ZM225.792 154.784C225.792 151.436 227.736 149.744 230.904 149.744C233.928 149.744 235.692 151.364 235.692 155.108C235.692 159.032 233.568 160.544 230.724 160.544C227.448 160.544 225.792 158.132 225.792 154.784ZM258.074 162.2V157.88C257.102 159.464 254.906 160.724 251.594 160.724C248.318 160.724 246.482 159.212 246.158 156.224H259.514V154.496C259.514 148.844 256.382 145.64 251.162 145.604C245.726 145.604 241.982 148.952 241.982 154.928C241.982 161.12 245.51 164.396 251.45 164.36C254.726 164.396 257.21 163.208 258.074 162.2ZM251.054 149.276C253.61 149.276 255.194 150.788 255.302 153.236H246.23C246.662 150.644 248.354 149.276 251.054 149.276ZM262.665 170.948H266.877V161.264C267.777 162.956 269.757 164.396 272.637 164.396C277.569 164.396 280.773 161.696 280.773 154.604C280.773 148.304 277.569 145.64 272.997 145.64C269.181 145.64 267.273 147.728 266.625 149.744V146H262.665V170.948ZM266.877 154.244C266.949 151.22 268.461 149.384 271.773 149.384C274.653 149.384 276.561 150.824 276.561 154.784C276.561 159.032 275.085 160.688 271.701 160.688C268.749 160.688 266.877 158.852 266.877 155.612V154.244ZM311.523 164H316.023V138.8H311.523V148.952H297.735V138.8H293.235V164H297.735V153.092H311.523V164ZM329.178 164.396C334.758 164.36 338.538 161.3 338.538 155.072C338.538 148.808 334.902 145.64 329.322 145.604C323.706 145.604 319.926 148.7 319.926 154.928C319.926 161.228 323.562 164.396 329.178 164.396ZM324.21 154.928C324.21 151.148 325.974 149.312 329.178 149.276C332.346 149.276 334.254 151.004 334.254 154.964V155.072C334.254 158.888 332.454 160.724 329.25 160.724C326.082 160.724 324.21 158.996 324.21 155.036V154.928ZM341.7 164H350.664C355.38 164 357.648 162.128 357.648 158.672C357.648 155.612 355.956 154.568 353.652 154.28C355.596 153.812 356.748 152.336 356.748 150.176C356.748 147.476 355.056 146 350.772 146H341.7V164ZM345.912 160.508V156.296H350.52C352.464 156.296 353.472 156.8 353.472 158.384C353.472 159.824 352.5 160.508 350.268 160.508H345.912ZM345.912 153.272V149.528L349.8 149.492C351.6 149.492 352.536 149.888 352.536 151.22C352.536 152.732 351.42 153.272 349.764 153.272H345.912ZM360.772 164H367.612C373.192 164 375.64 162.02 375.676 157.448C375.676 152.732 372.976 151.328 368.08 151.328H364.984V146H360.772V164ZM377.728 164H381.94V146H377.728V164ZM367.468 160.292H364.984V155.036H367.756C370.528 155.036 371.428 155.54 371.464 157.448C371.428 159.572 370.312 160.292 367.468 160.292ZM386.385 164H390.381L399.021 151.652V164H403.197V146H399.201L390.561 158.204V146H386.385V164ZM397.185 137.036C397.185 138.836 396.321 139.484 394.881 139.484C393.117 139.484 392.361 138.548 392.361 137.036H388.473C388.473 141.104 391.389 142.616 394.953 142.616C398.049 142.616 401.073 141.104 401.073 137.036H397.185ZM416.234 164H420.446V149.708H429.158V146H416.234V164ZM440.311 164.396C445.891 164.36 449.671 161.3 449.671 155.072C449.671 148.808 446.035 145.64 440.455 145.604C434.839 145.604 431.059 148.7 431.059 154.928C431.059 161.228 434.695 164.396 440.311 164.396ZM435.343 154.928C435.343 151.148 437.107 149.312 440.311 149.276C443.479 149.276 445.387 151.004 445.387 154.964V155.072C445.387 158.888 443.587 160.724 440.383 160.724C437.215 160.724 435.343 158.996 435.343 155.036V154.928ZM450.465 160.184V168.68H454.281V164H466.917V168.68H470.733V160.184H467.997V146H454.173V148.052C454.173 154.028 453.561 157.592 452.553 160.184H450.465ZM458.097 150.14V149.708H463.785V160.184H456.621C457.629 157.376 457.989 154.28 458.097 150.14ZM480.153 138.8H475.653V155.72H480.153V138.8ZM475.077 161.588C475.077 163.1 475.725 164.36 477.885 164.36C480.081 164.36 480.729 163.1 480.729 161.588C480.729 160.04 480.081 158.816 477.885 158.816C475.725 158.816 475.077 160.04 475.077 161.588Z" fill="white"/>
</svg>
