<svg width="1041" height="617" viewBox="0 0 1041 617" fill="none" xmlns="http://www.w3.org/2000/svg">
<path d="M2 2H1039V566L2 614V2Z" stroke="white" stroke-width="4"/>
<path d="M262.798 234.76C261.158 237.6 257.718 239.84 252.838 239.84C246.398 239.72 243.078 235.44 243.078 230C243.078 224.12 246.838 220.16 252.958 220.16C257.158 220.16 260.558 222.56 262.238 225.04V218.08C260.598 216.92 257.358 215.56 252.958 215.56C243.678 215.56 237.678 221.52 237.678 229.96C237.678 239 243.758 244.4 252.878 244.44C257.718 244.44 261.398 242.6 262.798 240.92V234.76ZM266.36 244H276.32C281.56 244 284.08 241.92 284.08 238.08C284.08 234.68 282.2 233.52 279.64 233.2C281.8 232.68 283.08 231.04 283.08 228.64C283.08 225.64 281.2 224 276.44 224H266.36V244ZM271.04 240.12V235.44H276.16C278.32 235.44 279.44 236 279.44 237.76C279.44 239.36 278.36 240.12 275.88 240.12H271.04ZM271.04 232.08V227.92L275.36 227.88C277.36 227.88 278.4 228.32 278.4 229.8C278.4 231.48 277.16 232.08 275.32 232.08H271.04ZM304.072 242V237.2C302.992 238.96 300.552 240.36 296.872 240.36C293.232 240.36 291.192 238.68 290.832 235.36H305.672V233.44C305.672 227.16 302.192 223.6 296.392 223.56C290.352 223.56 286.192 227.28 286.192 233.92C286.192 240.8 290.112 244.44 296.712 244.4C300.352 244.44 303.112 243.12 304.072 242ZM296.272 227.64C299.112 227.64 300.872 229.32 300.992 232.04H290.912C291.392 229.16 293.272 227.64 296.272 227.64ZM313.734 244H318.374V228.12H324.854V224H307.334V228.12H313.734V244ZM337.495 244H342.175V228.12H351.855V224H337.495V244ZM355.642 244H360.082L369.682 230.28V244H374.322V224H369.882L360.282 237.56V224H355.642V244ZM379.216 251.72H383.896V240.96C384.896 242.84 387.096 244.44 390.296 244.44C395.776 244.44 399.336 241.44 399.336 233.56C399.336 226.56 395.776 223.6 390.696 223.6C386.456 223.6 384.336 225.92 383.616 228.16V224H379.216V251.72ZM383.896 233.16C383.976 229.8 385.656 227.76 389.336 227.76C392.536 227.76 394.656 229.36 394.656 233.76C394.656 238.48 393.016 240.32 389.256 240.32C385.976 240.32 383.896 238.28 383.896 234.68V233.16ZM415.634 244H420.274V224H404.994L404.834 228.36C404.554 238.8 403.154 239.36 401.434 239.36C401.114 239.36 400.754 239.32 400.394 239.2V244.04C400.794 244.16 401.594 244.24 402.354 244.24C405.474 244.24 408.514 243.12 409.034 230.64L409.154 228.12H415.634V244ZM437.354 244H442.034V224H433.514C427.314 224 424.514 226.24 424.514 231.24C424.514 233.84 425.794 235.8 428.154 236.76L423.514 244H428.674L432.714 237.4H437.354V244ZM433.634 228.12H437.354V233.8H432.754C430.314 233.8 429.234 232.88 429.194 231.24C429.194 228.92 430.514 228.12 433.634 228.12ZM460.653 244H465.333V224H460.653V231.8H451.613V224H446.933V244H451.613V235.92H460.653V244ZM467.955 239.76V249.2H472.195V244H486.235V249.2H490.475V239.76H487.435V224H472.075V226.28C472.075 232.92 471.395 236.88 470.275 239.76H467.955ZM476.435 228.6V228.12H482.755V239.76H474.795C475.915 236.64 476.315 233.2 476.435 228.6ZM518.812 242V237.2C517.812 238.96 515.612 240.36 512.292 240.36C508.532 240.36 506.292 238.44 506.292 234.32V233.72C506.292 229.68 508.372 227.64 512.212 227.64C515.132 227.68 517.252 229.12 518.612 231.24V225.4C517.292 224.4 514.892 223.6 512.212 223.56C505.852 223.6 501.532 227.04 501.532 233.92C501.532 240.92 505.772 244.44 512.172 244.44C515.412 244.44 517.932 243.12 518.812 242ZM522.288 244H532.248C537.488 244 540.008 241.92 540.008 238.08C540.008 234.68 538.128 233.52 535.568 233.2C537.728 232.68 539.008 231.04 539.008 228.64C539.008 225.64 537.128 224 532.368 224H522.288V244ZM526.968 240.12V235.44H532.088C534.248 235.44 535.368 236 535.368 237.76C535.368 239.36 534.288 240.12 531.808 240.12H526.968ZM526.968 232.08V227.92L531.288 227.88C533.288 227.88 534.328 228.32 534.328 229.8C534.328 231.48 533.088 232.08 531.248 232.08H526.968ZM560 242V237.2C558.92 238.96 556.48 240.36 552.8 240.36C549.16 240.36 547.12 238.68 546.76 235.36H561.6V233.44C561.6 227.16 558.12 223.6 552.32 223.56C546.28 223.56 542.12 227.28 542.12 233.92C542.12 240.8 546.04 244.44 552.64 244.4C556.28 244.44 559.04 243.12 560 242ZM552.2 227.64C555.04 227.64 556.8 229.32 556.92 232.04H546.84C547.32 229.16 549.2 227.64 552.2 227.64ZM565.102 251.72H569.782V240.96C570.782 242.84 572.982 244.44 576.182 244.44C581.662 244.44 585.222 241.44 585.222 233.56C585.222 226.56 581.662 223.6 576.582 223.6C572.342 223.6 570.222 225.92 569.502 228.16V224H565.102V251.72ZM569.782 233.16C569.862 229.8 571.542 227.76 575.222 227.76C578.422 227.76 580.542 229.36 580.542 233.76C580.542 238.48 578.902 240.32 575.142 240.32C571.862 240.32 569.782 238.28 569.782 234.68V233.16ZM588.677 244H593.357V235.72H596.557L602.837 244H608.517L600.397 233.44L607.397 224H602.197L596.597 231.8H593.357V224H588.677V244ZM611.443 231.24C612.803 229.12 614.923 227.68 618.603 227.68C621.283 227.68 622.643 228.56 622.643 231.4V232.28H618.123C613.203 232.28 609.883 233.56 609.883 238.12C609.883 242.04 612.283 244.32 616.323 244.32C619.523 244.32 621.963 242.72 622.923 240.4V244H627.323V230.8C627.323 225.6 624.443 223.6 618.603 223.6C615.163 223.6 612.763 224.4 611.443 225.4V231.24ZM617.803 240.12C615.723 240.12 614.603 239.16 614.603 237.64C614.603 235.84 615.923 235.32 618.683 235.32H622.643V236.96C622.443 238.32 620.963 240.12 617.803 240.12ZM648.44 242V237.2C647.36 238.96 644.92 240.36 641.24 240.36C637.6 240.36 635.56 238.68 635.2 235.36H650.04V233.44C650.04 227.16 646.56 223.6 640.76 223.56C634.72 223.56 630.56 227.28 630.56 233.92C630.56 240.8 634.48 244.44 641.08 244.4C644.72 244.44 647.48 243.12 648.44 242ZM640.64 227.64C643.48 227.64 645.24 229.32 645.36 232.04H635.28C635.76 229.16 637.64 227.64 640.64 227.64ZM658.102 244H662.742V228.12H669.222V224H651.702V228.12H658.102V244ZM681.864 244H691.824C697.064 244 699.584 241.92 699.584 238.08C699.584 234.68 697.704 233.52 695.144 233.2C697.304 232.68 698.584 231.04 698.584 228.64C698.584 225.64 696.704 224 691.944 224H681.864V244ZM686.544 240.12V235.44H691.664C693.824 235.44 694.944 236 694.944 237.76C694.944 239.36 693.864 240.12 691.384 240.12H686.544ZM686.544 232.08V227.92L690.864 227.88C692.864 227.88 693.904 228.32 693.904 229.8C693.904 231.48 692.664 232.08 690.824 232.08H686.544ZM718.976 242V237.2C717.976 238.96 715.776 240.36 712.456 240.36C708.696 240.36 706.456 238.44 706.456 234.32V233.72C706.456 229.68 708.536 227.64 712.376 227.64C715.296 227.68 717.416 229.12 718.776 231.24V225.4C717.456 224.4 715.056 223.6 712.376 223.56C706.016 223.6 701.696 227.04 701.696 233.92C701.696 240.92 705.936 244.44 712.336 244.44C715.576 244.44 718.096 243.12 718.976 242ZM722.452 244H727.132V235.92H730.132C730.812 241.64 734.492 244.52 739.932 244.52C746.172 244.48 750.372 241.08 750.372 234.16C750.372 227.16 746.292 223.64 740.092 223.64C734.772 223.64 730.972 226.36 730.172 231.8H727.132V224H722.452V244ZM740.052 240.44C736.692 240.44 734.652 238.52 734.652 234.12V234C734.652 229.76 736.572 227.72 740.012 227.72C743.492 227.76 745.572 229.68 745.572 234.04V234.16C745.572 238.4 743.612 240.44 740.052 240.44ZM751.248 239.76V249.2H755.488V244H769.528V249.2H773.768V239.76H770.728V224H755.368V226.28C755.368 232.92 754.688 236.88 753.568 239.76H751.248ZM759.728 228.6V228.12H766.048V239.76H758.088C759.208 236.64 759.608 233.2 759.728 228.6ZM782.203 244.08C781.443 246.8 780.363 247.76 778.923 247.76C778.043 247.76 777.123 247.36 776.523 246.76V251.12C777.123 251.64 778.483 252 779.723 252C782.363 252 784.163 250.92 785.923 246.12L793.923 224H788.963L784.483 237.72L779.003 224H773.763L782.203 244.08ZM794.214 248.08L796.294 250.56C798.734 250.08 802.494 247.44 802.494 242.64C802.494 240.6 801.814 239.28 800.894 238.72C800.414 238.4 799.774 238.24 798.934 238.24C796.534 238.24 795.814 239.6 795.814 241.32C795.814 243 796.534 244.4 798.934 244.4H799.014C798.734 245.96 796.974 247.56 794.214 248.08ZM319.632 276.04C321.272 273.56 324.672 271.12 328.912 271.2C331.872 271.28 334.192 272.32 334.192 274.92C334.192 277 332.952 278.72 329.352 278.72H325.152V282.84H329.392C333.752 282.84 335.592 284 335.592 286.48C335.592 289.32 332.872 290.76 329.472 290.8C324.312 290.84 320.672 288.6 318.952 285.76V291.92C320.432 293.6 324.312 295.44 329.392 295.4C336.912 295.36 340.792 291.64 340.792 286.8C340.792 283.12 338.712 280.88 334.392 280.24C337.632 279.08 339.352 276.92 339.352 273.64C339.352 268.72 335.192 266.64 328.912 266.6C324.472 266.6 321.232 267.92 319.632 269.08V276.04ZM345.407 282.24C346.767 280.12 348.887 278.68 352.567 278.68C355.247 278.68 356.607 279.56 356.607 282.4V283.28H352.087C347.167 283.28 343.847 284.56 343.847 289.12C343.847 293.04 346.247 295.32 350.287 295.32C353.487 295.32 355.927 293.72 356.887 291.4V295H361.287V281.8C361.287 276.6 358.407 274.6 352.567 274.6C349.127 274.6 346.727 275.4 345.407 276.4V282.24ZM351.767 291.12C349.687 291.12 348.567 290.16 348.567 288.64C348.567 286.84 349.887 286.32 352.647 286.32H356.607V287.96C356.407 289.32 354.927 291.12 351.767 291.12ZM365.885 295H370.565V286.72H373.765L380.045 295H385.725L377.605 284.44L384.605 275H379.405L373.805 282.8H370.565V275H365.885V295ZM388.327 302.72H393.007V291.96C394.007 293.84 396.207 295.44 399.407 295.44C404.887 295.44 408.447 292.44 408.447 284.56C408.447 277.56 404.887 274.6 399.807 274.6C395.567 274.6 393.447 276.92 392.727 279.16V275H388.327V302.72ZM393.007 284.16C393.087 280.8 394.767 278.76 398.447 278.76C401.647 278.76 403.767 280.36 403.767 284.76C403.767 289.48 402.127 291.32 398.367 291.32C395.087 291.32 393.007 289.28 393.007 285.68V284.16ZM417.317 295.08C416.557 297.8 415.477 298.76 414.037 298.76C413.157 298.76 412.237 298.36 411.637 297.76V302.12C412.237 302.64 413.597 303 414.837 303C417.477 303 419.277 301.92 421.037 297.12L429.037 275H424.077L419.597 288.72L414.117 275H408.877L417.317 295.08ZM441.735 295H446.375V286.72H449.135L453.575 295H458.895L452.975 284.48L458.255 275H453.295L449.055 282.8H446.375V275H441.735V282.8H438.975L434.975 275H429.775L435.135 284.64L429.215 295H434.455L439.015 286.72H441.735V295ZM461.632 295H466.072L475.672 281.28V295H480.312V275H475.872L466.272 288.56V275H461.632V295ZM498.166 295H502.806V275H487.526L487.366 279.36C487.086 289.8 485.686 290.36 483.966 290.36C483.646 290.36 483.286 290.32 482.926 290.2V295.04C483.326 295.16 484.126 295.24 484.886 295.24C488.006 295.24 491.046 294.12 491.566 281.64L491.686 279.12H498.166V295ZM523.646 293V288.2C522.646 289.96 520.446 291.36 517.126 291.36C513.366 291.36 511.126 289.44 511.126 285.32V284.72C511.126 280.68 513.206 278.64 517.046 278.64C519.966 278.68 522.086 280.12 523.446 282.24V276.4C522.126 275.4 519.726 274.6 517.046 274.56C510.686 274.6 506.366 278.04 506.366 284.92C506.366 291.92 510.606 295.44 517.006 295.44C520.246 295.44 522.766 294.12 523.646 293ZM539.281 295H543.961V275H535.441C529.241 275 526.441 277.24 526.441 282.24C526.441 284.84 527.721 286.8 530.081 287.76L525.441 295H530.601L534.641 288.4H539.281V295ZM535.561 279.12H539.281V284.8H534.681C532.241 284.8 531.161 283.88 531.121 282.24C531.121 279.92 532.441 279.12 535.561 279.12ZM556.011 295H561.291L566.051 287.44L570.811 295H576.291L569.411 284.48L575.811 275H570.531L566.251 281.76L561.971 275H556.491L562.811 284.76L556.011 295ZM587.079 295.44C593.279 295.4 597.479 292 597.479 285.08C597.479 278.12 593.439 274.6 587.239 274.56C580.999 274.56 576.799 278 576.799 284.92C576.799 291.92 580.839 295.44 587.079 295.44ZM581.559 284.92C581.559 280.72 583.519 278.68 587.079 278.64C590.599 278.64 592.719 280.56 592.719 284.96V285.08C592.719 289.32 590.719 291.36 587.159 291.36C583.639 291.36 581.559 289.44 581.559 285.04V284.92ZM600.992 302.72H605.672V291.96C606.672 293.84 608.872 295.44 612.072 295.44C617.552 295.44 621.112 292.44 621.112 284.56C621.112 277.56 617.552 274.6 612.472 274.6C608.232 274.6 606.112 276.92 605.392 279.16V275H600.992V302.72ZM605.672 284.16C605.752 280.8 607.432 278.76 611.112 278.76C614.312 278.76 616.432 280.36 616.432 284.76C616.432 289.48 614.792 291.32 611.032 291.32C607.752 291.32 605.672 289.28 605.672 285.68V284.16ZM633.487 295.44C639.687 295.4 643.887 292 643.887 285.08C643.887 278.12 639.847 274.6 633.647 274.56C627.407 274.56 623.207 278 623.207 284.92C623.207 291.92 627.247 295.44 633.487 295.44ZM627.967 284.92C627.967 280.72 629.927 278.68 633.487 278.64C637.007 278.64 639.127 280.56 639.127 284.96V285.08C639.127 289.32 637.127 291.36 633.567 291.36C630.047 291.36 627.967 289.44 627.967 285.04V284.92ZM647.399 295H657.359C662.599 295 665.119 292.92 665.119 289.08C665.119 285.68 663.239 284.52 660.679 284.2C662.839 283.68 664.119 282.04 664.119 279.64C664.119 276.64 662.239 275 657.479 275H647.399V295ZM652.079 291.12V286.44H657.199C659.359 286.44 660.479 287 660.479 288.76C660.479 290.36 659.399 291.12 656.919 291.12H652.079ZM652.079 283.08V278.92L656.399 278.88C658.399 278.88 659.439 279.32 659.439 280.8C659.439 282.48 658.199 283.08 656.359 283.08H652.079ZM677.512 295.44C683.712 295.4 687.912 292 687.912 285.08C687.912 278.12 683.872 274.6 677.672 274.56C671.432 274.56 667.232 278 667.232 284.92C667.232 291.92 671.272 295.44 677.512 295.44ZM671.992 284.92C671.992 280.72 673.952 278.68 677.512 278.64C681.032 278.64 683.152 280.56 683.152 284.96V285.08C683.152 289.32 681.152 291.36 677.592 291.36C674.072 291.36 671.992 289.44 671.992 285.04V284.92ZM688.794 290.76V300.2H693.034V295H707.074V300.2H711.314V290.76H708.274V275H692.914V277.28C692.914 283.92 692.234 287.88 691.114 290.76H688.794ZM697.274 279.6V279.12H703.594V290.76H695.634C696.754 287.64 697.154 284.2 697.274 279.6ZM713.38 299.08L715.46 301.56C717.9 301.08 721.66 298.44 721.66 293.64C721.66 291.6 720.98 290.28 720.06 289.72C719.58 289.4 718.94 289.24 718.1 289.24C715.7 289.24 714.98 290.6 714.98 292.32C714.98 294 715.7 295.4 718.1 295.4H718.18C717.9 296.96 716.14 298.56 713.38 299.08ZM346.494 318H327.494V346H332.494V322.6H346.494V318ZM354.736 346.44C360.936 346.4 365.136 343 365.136 336.08C365.136 329.12 361.096 325.6 354.896 325.56C348.656 325.56 344.456 329 344.456 335.92C344.456 342.92 348.496 346.44 354.736 346.44ZM349.216 335.92C349.216 331.72 351.176 329.68 354.736 329.64C358.256 329.64 360.376 331.56 360.376 335.96V336.08C360.376 340.32 358.376 342.36 354.816 342.36C351.296 342.36 349.216 340.44 349.216 336.04V335.92ZM368.649 353.72H373.329V342.96C374.329 344.84 376.529 346.44 379.729 346.44C385.209 346.44 388.769 343.44 388.769 335.56C388.769 328.56 385.209 325.6 380.129 325.6C375.889 325.6 373.769 327.92 373.049 330.16V326H368.649V353.72ZM373.329 335.16C373.409 331.8 375.089 329.76 378.769 329.76C381.969 329.76 384.089 331.36 384.089 335.76C384.089 340.48 382.449 342.32 378.689 342.32C375.409 342.32 373.329 340.28 373.329 336.68V335.16ZM401.144 346.44C407.344 346.4 411.544 343 411.544 336.08C411.544 329.12 407.504 325.6 401.304 325.56C395.064 325.56 390.864 329 390.864 335.92C390.864 342.92 394.904 346.44 401.144 346.44ZM395.624 335.92C395.624 331.72 397.584 329.68 401.144 329.64C404.664 329.64 406.784 331.56 406.784 335.96V336.08C406.784 340.32 404.784 342.36 401.224 342.36C397.704 342.36 395.624 340.44 395.624 336.04V335.92ZM412.426 341.76V351.2H416.666V346H430.706V351.2H434.946V341.76H431.906V326H416.546V328.28C416.546 334.92 415.866 338.88 414.746 341.76H412.426ZM420.906 330.6V330.12H427.226V341.76H419.266C420.386 338.64 420.786 335.2 420.906 330.6ZM447.363 353.72H452.043V342.96C453.043 344.84 455.243 346.44 458.443 346.44C463.923 346.44 467.483 343.44 467.483 335.56C467.483 328.56 463.923 325.6 458.843 325.6C454.603 325.6 452.483 327.92 451.763 330.16V326H447.363V353.72ZM452.043 335.16C452.123 331.8 453.803 329.76 457.483 329.76C460.683 329.76 462.803 331.36 462.803 335.76C462.803 340.48 461.163 342.32 457.403 342.32C454.123 342.32 452.043 340.28 452.043 336.68V335.16ZM471.418 333.24C472.778 331.12 474.898 329.68 478.578 329.68C481.258 329.68 482.618 330.56 482.618 333.4V334.28H478.098C473.178 334.28 469.858 335.56 469.858 340.12C469.858 344.04 472.258 346.32 476.298 346.32C479.498 346.32 481.938 344.72 482.898 342.4V346H487.298V332.8C487.298 327.6 484.418 325.6 478.578 325.6C475.138 325.6 472.738 326.4 471.418 327.4V333.24ZM477.778 342.12C475.698 342.12 474.578 341.16 474.578 339.64C474.578 337.84 475.898 337.32 478.658 337.32H482.618V338.96C482.418 340.32 480.938 342.12 477.778 342.12ZM489.655 341.76V351.2H493.895V346H507.935V351.2H512.175V341.76H509.135V326H493.775V328.28C493.775 334.92 493.095 338.88 491.975 341.76H489.655ZM498.135 330.6V330.12H504.455V341.76H496.495C497.615 338.64 498.015 335.2 498.135 330.6ZM520.611 346.08C519.851 348.8 518.771 349.76 517.331 349.76C516.451 349.76 515.531 349.36 514.931 348.76V353.12C515.531 353.64 516.891 354 518.131 354C520.771 354 522.571 352.92 524.331 348.12L532.331 326H527.371L522.891 339.72L517.411 326H512.171L520.611 346.08ZM550.565 344V339.2C549.485 340.96 547.045 342.36 543.365 342.36C539.725 342.36 537.685 340.68 537.325 337.36H552.165V335.44C552.165 329.16 548.685 325.6 542.885 325.56C536.845 325.56 532.685 329.28 532.685 335.92C532.685 342.8 536.605 346.44 543.205 346.4C546.845 346.44 549.605 345.12 550.565 344ZM542.765 329.64C545.605 329.64 547.365 331.32 547.485 334.04H537.405C537.885 331.16 539.765 329.64 542.765 329.64ZM560.227 346H564.867V330.12H571.347V326H553.827V330.12H560.227V346ZM590.319 344V339.2C589.319 340.96 587.119 342.36 583.799 342.36C580.039 342.36 577.799 340.44 577.799 336.32V335.72C577.799 331.68 579.879 329.64 583.719 329.64C586.639 329.68 588.759 331.12 590.119 333.24V327.4C588.799 326.4 586.399 325.6 583.719 325.56C577.359 325.6 573.039 329.04 573.039 335.92C573.039 342.92 577.279 346.44 583.679 346.44C586.919 346.44 589.439 345.12 590.319 344ZM605.954 346H610.634V326H602.114C595.914 326 593.114 328.24 593.114 333.24C593.114 335.84 594.394 337.8 596.754 338.76L592.114 346H597.274L601.314 339.4H605.954V346ZM602.234 330.12H605.954V335.8H601.354C598.914 335.8 597.834 334.88 597.794 333.24C597.794 330.92 599.114 330.12 602.234 330.12ZM637.244 346H641.924V326H637.244V335.04C636.044 335.64 634.524 335.96 632.924 335.96C630.444 335.96 629.084 334.84 629.084 332.44V326H624.404V333.16C624.404 337.96 627.284 340.12 632.084 340.12C633.924 340.12 635.844 339.76 637.244 338.96V346ZM652.785 346.08C652.025 348.8 650.945 349.76 649.505 349.76C648.625 349.76 647.705 349.36 647.105 348.76V353.12C647.705 353.64 649.065 354 650.305 354C652.945 354 654.745 352.92 656.505 348.12L664.505 326H659.545L655.065 339.72L649.585 326H644.345L652.785 346.08ZM663.784 341.76V351.2H668.024V346H682.064V351.2H686.304V341.76H683.264V326H667.904V328.28C667.904 334.92 667.224 338.88 666.104 341.76H663.784ZM672.264 330.6V330.12H678.584V341.76H670.624C671.744 338.64 672.144 335.2 672.264 330.6ZM694.739 346.08C693.979 348.8 692.899 349.76 691.459 349.76C690.579 349.76 689.659 349.36 689.059 348.76V353.12C689.659 353.64 691.019 354 692.259 354C694.899 354 696.699 352.92 698.459 348.12L706.459 326H701.499L697.019 339.72L691.539 326H686.299L694.739 346.08ZM708.27 343.32C708.27 345 708.99 346.4 711.39 346.4C713.83 346.4 714.55 345 714.55 343.32C714.55 341.6 713.83 340.24 711.39 340.24C708.99 340.24 708.27 341.6 708.27 343.32ZM264.225 397C271.025 397 275.185 394.64 275.185 388.84C275.185 385.2 273.625 383 270.185 382.4C273.065 381.28 274.345 379.16 274.345 375.96C274.345 371.32 271.145 369 264.905 369H252.745V397H264.225ZM257.745 392.4V384.76H264.625C268.145 384.76 270.145 385.8 270.145 388.48C270.145 391.16 268.385 392.4 264.545 392.4H257.745ZM257.745 380.84V373.6H264.305C267.865 373.6 269.345 374.8 269.345 377.04C269.345 379.44 267.345 380.84 264.185 380.84H257.745ZM312.781 387.76C311.141 390.6 307.701 392.84 302.821 392.84C296.381 392.72 293.061 388.44 293.061 383C293.061 377.12 296.821 373.16 302.941 373.16C307.141 373.16 310.541 375.56 312.221 378.04V371.08C310.581 369.92 307.341 368.56 302.941 368.56C293.661 368.56 287.661 374.52 287.661 382.96C287.661 392 293.741 397.4 302.861 397.44C307.701 397.44 311.381 395.6 312.781 393.92V387.76ZM333.084 366C331.444 366.84 327.284 367 324.204 367.52C317.324 368.64 314.284 373.08 314.284 384.12C314.284 393.36 318.084 397.4 324.884 397.4C331.204 397.4 334.964 393.8 334.964 386.72C334.964 379.48 330.884 377 325.964 377C322.364 377 319.924 378.48 318.364 380.72C318.884 375 320.324 372.48 326.724 371.88C330.004 371.6 332.284 371.24 333.084 370.8V366ZM319.084 386.76C319.084 383.04 321.244 381.16 324.764 381.16C328.124 381.16 330.084 382.96 330.084 387.12C330.084 391.48 327.724 393.16 324.564 393.16C320.924 393.16 319.084 390.48 319.084 386.76ZM354.953 395V390.2C353.873 391.96 351.433 393.36 347.753 393.36C344.113 393.36 342.073 391.68 341.713 388.36H356.553V386.44C356.553 380.16 353.073 376.6 347.273 376.56C341.233 376.56 337.073 380.28 337.073 386.92C337.073 393.8 340.993 397.44 347.593 397.4C351.233 397.44 353.993 396.12 354.953 395ZM347.153 380.64C349.993 380.64 351.753 382.32 351.873 385.04H341.793C342.273 382.16 344.153 380.64 347.153 380.64ZM360.055 404.72H364.735V393.96C365.735 395.84 367.935 397.44 371.135 397.44C376.615 397.44 380.175 394.44 380.175 386.56C380.175 379.56 376.615 376.6 371.535 376.6C367.295 376.6 365.175 378.92 364.455 381.16V377H360.055V404.72ZM364.735 386.16C364.815 382.8 366.495 380.76 370.175 380.76C373.375 380.76 375.495 382.36 375.495 386.76C375.495 391.48 373.855 393.32 370.095 393.32C366.815 393.32 364.735 391.28 364.735 387.68V386.16ZM406.62 397H411.3V377H393.22V397H397.9V381.12H406.62V397ZM416.17 404.72H420.85V393.96C421.85 395.84 424.05 397.44 427.25 397.44C432.73 397.44 436.29 394.44 436.29 386.56C436.29 379.56 432.73 376.6 427.65 376.6C423.41 376.6 421.29 378.92 420.57 381.16V377H416.17V404.72ZM420.85 386.16C420.93 382.8 422.61 380.76 426.29 380.76C429.49 380.76 431.61 382.36 431.61 386.76C431.61 391.48 429.97 393.32 426.21 393.32C422.93 393.32 420.85 391.28 420.85 387.68V386.16ZM439.785 397H444.225L453.825 383.28V397H458.465V377H454.025L444.425 390.56V377H439.785V397ZM460.92 397H466.2L470.96 389.44L475.72 397H481.2L474.32 386.48L480.72 377H475.44L471.16 383.76L466.88 377H461.4L467.72 386.76L460.92 397ZM491.987 397.44C498.187 397.4 502.387 394 502.387 387.08C502.387 380.12 498.347 376.6 492.147 376.56C485.907 376.56 481.707 380 481.707 386.92C481.707 393.92 485.747 397.44 491.987 397.44ZM486.467 386.92C486.467 382.72 488.427 380.68 491.987 380.64C495.507 380.64 497.627 382.56 497.627 386.96V387.08C497.627 391.32 495.627 393.36 492.067 393.36C488.547 393.36 486.467 391.44 486.467 387.04V386.92ZM503.27 392.76V402.2H507.51V397H521.55V402.2H525.79V392.76H522.75V377H507.39V379.28C507.39 385.92 506.71 389.88 505.59 392.76H503.27ZM511.75 381.6V381.12H518.07V392.76H510.11C511.23 389.64 511.63 386.2 511.75 381.6ZM528.656 397H533.096L542.696 383.28V397H547.336V377H542.896L533.296 390.56V377H528.656V397ZM556.79 397H561.43V381.12H567.91V377H550.39V381.12H556.79V397ZM601.672 397H606.672V369H601.672V380.28H586.352V369H581.352V397H586.352V384.88H601.672V397ZM621.289 397.44C627.489 397.4 631.689 394 631.689 387.08C631.689 380.12 627.649 376.6 621.449 376.56C615.209 376.56 611.009 380 611.009 386.92C611.009 393.92 615.049 397.44 621.289 397.44ZM615.769 386.92C615.769 382.72 617.729 380.68 621.289 380.64C624.809 380.64 626.929 382.56 626.929 386.96V387.08C626.929 391.32 624.929 393.36 621.369 393.36C617.849 393.36 615.769 391.44 615.769 387.04V386.92ZM635.202 397H645.162C650.402 397 652.922 394.92 652.922 391.08C652.922 387.68 651.042 386.52 648.482 386.2C650.642 385.68 651.922 384.04 651.922 381.64C651.922 378.64 650.042 377 645.282 377H635.202V397ZM639.882 393.12V388.44H645.002C647.162 388.44 648.282 389 648.282 390.76C648.282 392.36 647.202 393.12 644.722 393.12H639.882ZM639.882 385.08V380.92L644.202 380.88C646.202 380.88 647.242 381.32 647.242 382.8C647.242 384.48 646.002 385.08 644.162 385.08H639.882ZM656.394 397H663.994C670.194 397 672.914 394.8 672.954 389.72C672.954 384.48 669.954 382.92 664.514 382.92H661.074V377H656.394V397ZM675.234 397H679.914V377H675.234V397ZM663.834 392.88H661.074V387.04H664.154C667.234 387.04 668.234 387.6 668.274 389.72C668.234 392.08 666.994 392.88 663.834 392.88ZM684.853 397H689.293L698.893 383.28V397H703.533V377H699.093L689.493 390.56V377H684.853V397ZM696.853 367.04C696.853 369.04 695.893 369.76 694.293 369.76C692.333 369.76 691.493 368.72 691.493 367.04H687.173C687.173 371.56 690.413 373.24 694.373 373.24C697.813 373.24 701.173 371.56 701.173 367.04H696.853ZM718.017 397H722.697V381.12H732.377V377H718.017V397ZM744.77 397.44C750.97 397.4 755.17 394 755.17 387.08C755.17 380.12 751.13 376.6 744.93 376.56C738.69 376.56 734.49 380 734.49 386.92C734.49 393.92 738.53 397.44 744.77 397.44ZM739.25 386.92C739.25 382.72 741.21 380.68 744.77 380.64C748.29 380.64 750.41 382.56 750.41 386.96V387.08C750.41 391.32 748.41 393.36 744.85 393.36C741.33 393.36 739.25 391.44 739.25 387.04V386.92ZM756.052 392.76V402.2H760.292V397H774.332V402.2H778.572V392.76H775.532V377H760.172V379.28C760.172 385.92 759.492 389.88 758.372 392.76H756.052ZM764.532 381.6V381.12H770.852V392.76H762.892C764.012 389.64 764.412 386.2 764.532 381.6ZM789.039 369H784.039V387.8H789.039V369ZM783.399 394.32C783.399 396 784.119 397.4 786.519 397.4C788.959 397.4 789.679 396 789.679 394.32C789.679 392.6 788.959 391.24 786.519 391.24C784.119 391.24 783.399 392.6 783.399 394.32Z" fill="white"/>
</svg>
